<?xml version="1.0" encoding="UTF-8" standalone="no"?>
<!-- Generator: Adobe Illustrator 16.0.0, SVG Export Plug-In . SVG Version: 6.00 Build 0)  -->

<svg
   xmlns:dc="http://purl.org/dc/elements/1.1/"
   xmlns:cc="http://creativecommons.org/ns#"
   xmlns:rdf="http://www.w3.org/1999/02/22-rdf-syntax-ns#"
   xmlns:svg="http://www.w3.org/2000/svg"
   xmlns="http://www.w3.org/2000/svg"
   xmlns:sodipodi="http://sodipodi.sourceforge.net/DTD/sodipodi-0.dtd"
   xmlns:inkscape="http://www.inkscape.org/namespaces/inkscape"
   version="1.1"
   id="Layer_1"
   x="0px"
   y="0px"
   width="484.41489"
   height="345.18402"
   viewBox="0 0 484.41489 345.18402"
   enable-background="new 0 0 512 512"
   xml:space="preserve"
   inkscape:version="0.91 r13725"
   sodipodi:docname="arrow.svg"><metadata
     id="metadata3394"><rdf:RDF><cc:Work
         rdf:about=""><dc:format>image/svg+xml</dc:format><dc:type
           rdf:resource="http://purl.org/dc/dcmitype/StillImage" /><dc:title></dc:title></cc:Work></rdf:RDF></metadata><defs
     id="defs3392" /><sodipodi:namedview
     pagecolor="#ffffff"
     bordercolor="#666666"
     borderopacity="1"
     objecttolerance="10"
     gridtolerance="10"
     guidetolerance="10"
     inkscape:pageopacity="0"
     inkscape:pageshadow="2"
     inkscape:window-width="1280"
     inkscape:window-height="751"
     id="namedview3390"
     showgrid="false"
     inkscape:zoom="1.0722656"
     inkscape:cx="253.33081"
     inkscape:cy="91.862231"
     inkscape:window-x="0"
     inkscape:window-y="0"
     inkscape:window-maximized="1"
     inkscape:current-layer="Layer_1"
     fit-margin-top="0"
     fit-margin-left="0"
     fit-margin-right="0"
     fit-margin-bottom="50" /><path
     d="m 278.95794,279.72533 c -20.181,20.179 -53.165,19.913 -73.673,-0.595 l 0,0 c -20.508,-20.508 -20.773,-53.493 -0.594,-73.672 l 189.999,-189.999989 c 20.178,-20.1779997 53.164,-19.9129997 73.672,0.595 l 0,0 c 20.508,20.508996 20.772,53.491996 0.595,73.670996 l -189.999,190.000993 z"
     id="path3386"
     style="fill:#000000;fill-opacity:1;stroke:#101414;stroke-opacity:0.83974364"
     inkscape:connector-curvature="0" /><path
     d="m 205.45594,279.72533 c 20.18,20.179 53.164,19.913 73.672,-0.595 l 0,0 c 20.509,-20.508 20.774,-53.493 0.596,-73.672 L 89.723949,15.458341 c -20.178,-20.1779997 -53.164,-19.9129997 -73.671,0.595 l 0,0 c -20.5079999,20.508996 -20.7719999,53.491996 -0.595,73.670996 L 205.45594,279.72533 Z"
     id="path3388"
     style="fill:#000000;fill-opacity:1;stroke:#101414;stroke-opacity:0.83974364"
     inkscape:connector-curvature="0" /></svg>